<?xml version="1.0" encoding="UTF-8"?>
<svg width="25px" height="24px" viewBox="0 0 25 24" version="1.1" xmlns="http://www.w3.org/2000/svg" xmlns:xlink="http://www.w3.org/1999/xlink">
    <!-- Generator: Sketch 61.2 (89653) - https://sketch.com -->
    <title>パレットのアイコン6 (1)</title>
    <desc>Created with Sketch.</desc>
    <g id="デザイン" stroke="none" stroke-width="1" fill="none" fill-rule="evenodd">
        <g id="INDEX" transform="translate(-518.000000, -3488.000000)" fill="#FFFFFF" fill-rule="nonzero">
            <g id="パレットのアイコン6-(1)" transform="translate(518.000000, 3488.000000)">
                <path d="M20.0606502,9.23486886 C24.8344319,8.80444628 25.8170496,6.50902546 24.4111407,4.35736159 C21.8864324,0.493188657 16.3093787,-1.0279605 10.6817391,0.719327676 C3.59965544,2.91809552 -1.08525906,9.60521392 0.217427152,15.6554306 C1.52001571,21.7056973 8.31708949,24.8279326 15.3991732,22.6291648 C18.472954,21.6746106 21.0951234,19.8747297 22.9719798,17.6482683 C23.7295974,16.7496002 23.9920487,13.9694675 20.4818418,14.1132743 C16.7388711,14.2666616 16.2205603,9.58121285 20.0606502,9.23486886 Z M18.845171,3.98951145 C19.1902884,3.63727947 19.6674371,3.43509163 20.1556698,3.43509163 C20.6438536,3.43509163 21.1206116,3.63727947 21.4661196,3.98951145 C21.8111882,4.3425917 22.0090398,4.83019773 22.0090398,5.32913066 C22.0090398,5.82806359 21.8111882,6.31522053 21.4661196,6.66830078 C21.1206116,7.02093194 20.6438536,7.22316969 20.1556698,7.22316969 C19.6674371,7.22316969 19.1902884,7.02098184 18.845171,6.66830078 C18.5001025,6.31522053 18.3022508,5.82806359 18.3022508,5.32913066 C18.3022508,4.83019773 18.5001025,4.3425917 18.845171,3.98951145 Z M3.18632515,10.2058396 C3.46518272,9.34833756 4.37089607,8.88428353 5.20956837,9.16885344 C6.04868013,9.45382253 6.50317255,10.3794357 6.22470561,11.2364886 C5.94584804,12.0939407 5.03969524,12.5579947 4.20136473,12.273824 C3.36235063,11.9884557 2.90785821,11.0628925 3.18632515,10.2058396 Z M6.24736187,17.7259599 C5.67148267,18.3472434 4.71147241,18.3745378 4.10356195,17.7865364 C3.49521203,17.198086 3.46889366,16.217435 4.04477286,15.5962014 C4.6202126,14.9745187 5.5797834,14.9472243 6.18813332,15.5356748 C6.79599496,16.123726 6.82275279,17.1043271 6.24736187,17.7259599 Z M9.30380874,7.42785244 C8.54863258,7.98312054 7.49565352,7.80737878 6.95229387,7.03565194 C6.40893422,6.26352591 6.58090696,5.18791852 7.3360343,4.63260052 L7.3360343,4.63220134 C8.09164992,4.07738233 9.14423835,4.25307418 9.68754917,5.02480103 C10.2309577,5.79652787 10.0590337,6.87258435 9.30380874,7.42785244 Z M12.2295427,4.16141104 C12.1164078,3.16943317 12.8115254,2.27241174 13.7822778,2.1572465 C14.7525908,2.04208126 15.6307651,2.75248312 15.7434605,3.7440119 C15.8565465,4.73559058 15.1610383,5.6329613 14.1906765,5.74812654 C13.2200217,5.86379076 12.342238,5.15298972 12.2295427,4.16141104 Z M17.6219282,17.7096432 C17.6219282,18.3144602 17.3821332,18.9046072 16.9638224,19.3325349 C16.5455117,19.7599636 15.967191,20.005064 15.3752962,20.005064 C14.7838408,20.005064 14.2051296,19.7599636 13.7872095,19.3325349 C13.3689475,18.9046072 13.1291037,18.3144602 13.1291037,17.7096432 C13.1291037,17.1047762 13.3689475,16.5133817 13.7872095,16.0858532 C14.2051296,15.6587738 14.7838408,15.4137234 15.3752962,15.4137234 C15.967191,15.4137234 16.5455117,15.6587738 16.9638224,16.0858532 C17.3821332,16.5133318 17.6219282,17.1047263 17.6219282,17.7096432 Z" id="Shape"></path>
            </g>
        </g>
    </g>
</svg>