<?xml version="1.0" encoding="UTF-8"?>
<svg width="488px" height="512px" viewBox="0 0 488 512" version="1.1" xmlns="http://www.w3.org/2000/svg" xmlns:xlink="http://www.w3.org/1999/xlink">
    <!-- Generator: Sketch 61.2 (89653) - https://sketch.com -->
    <title>Shape</title>
    <desc>Created with Sketch.</desc>
    <g id="デザイン" stroke="none" stroke-width="1" fill="none" fill-rule="evenodd">
        <g id="INDEX" transform="translate(-707.000000, -2292.000000)" fill="#757479" fill-rule="nonzero">
            <g id="home白" transform="translate(707.000000, 2292.000000)">
                <path d="M482.699547,283.286 L259.560547,7.606 C255.662547,2.795 249.808547,0 243.625547,0 C237.442547,0 231.587547,2.795 227.691547,7.606 L4.56854651,283.286 C-0.414453486,289.428 -1.40145349,297.881 2.00354651,305.01 C5.39054651,312.139 12.5935465,316.677 20.4875465,316.677 L74.7555465,316.677 L74.7555465,512 L412.514547,512 L412.514547,479.464 L412.514547,316.677 L466.766547,316.677 C474.660547,316.677 481.863547,312.139 485.267547,305.01 C488.669547,297.88 487.665547,289.428 482.699547,283.286 Z M347.425547,446.92 L139.826547,446.92 L139.826547,316.677 L347.425547,316.677 L347.425547,446.92 Z" id="Shape"></path>
            </g>
        </g>
    </g>
</svg>